<svg width="24" height="24" viewBox="0 0 24 24" fill="none" xmlns="http://www.w3.org/2000/svg">
<g id="Icons regular">
<path id="Vector" d="M12.0998 3.92266L12.0998 3.92272L10.5809 8.59662C10.5809 8.59662 10.5809 8.59663 10.5809 8.59663C10.3466 9.3176 9.67476 9.80575 8.91665 9.80577C8.91665 9.80577 8.91665 9.80577 8.91664 9.80577L4.00216 9.80596C3.76001 9.80597 3.65926 10.1159 3.85522 10.2582L7.83096 13.147C7.83097 13.147 7.83099 13.147 7.83101 13.147C8.44436 13.5927 8.70093 14.3826 8.46671 15.1035L6.94822 19.7775C6.87337 20.0079 7.13703 20.1993 7.33289 20.057L7.33292 20.057L11.3089 17.1685L11.3089 17.1685C11.9223 16.723 12.7528 16.723 13.3661 17.1685L13.3661 17.1685L17.3421 20.057L17.3422 20.057C17.538 20.1993 17.8017 20.0079 17.7268 19.7775L16.2083 15.1035L16.2083 15.1034C15.9742 14.3826 16.2306 13.5927 16.8441 13.147L12.0998 3.92266ZM12.0998 3.92266C12.1746 3.69242 12.5004 3.6924 12.5752 3.92266L12.5752 3.92272L14.0941 8.59663L14.0941 8.59665C14.3284 9.31758 15.0003 9.80575 15.7584 9.80577L20.6729 9.80596C20.915 9.80597 21.0158 10.1158 20.8199 10.2582C20.8198 10.2582 20.8198 10.2583 20.8198 10.2583L16.8441 13.147L12.0998 3.92266Z" stroke="#F19937" stroke-width="1.5"/>
</g>
</svg>
