<svg width="24" height="24" viewBox="0 0 24 24" fill="none" xmlns="http://www.w3.org/2000/svg">
<g id="Icons Solid">
<path id="Vector" d="M13.9491 8.81714L13.9491 8.81717C14.1767 9.5176 14.8295 9.99182 15.5659 9.99182H19.7194C20.3975 9.99182 20.6794 10.8596 20.1308 11.2581L16.7706 13.6994C16.7706 13.6994 16.7706 13.6994 16.7706 13.6995C16.1747 14.1323 15.9255 14.8997 16.153 15.6L16.153 15.6001L17.4365 19.5502C17.4365 19.5502 17.4365 19.5502 17.4365 19.5502C17.6461 20.1953 16.9078 20.7314 16.3594 20.3329L12.9991 17.8915L12.9991 17.8915C12.4033 17.4587 11.5965 17.4587 11.0007 17.8915L11.0006 17.8915L7.64043 20.3329C7.09191 20.7315 6.35369 20.1952 6.56325 19.5502L7.84673 15.6001C7.84673 15.6001 7.84674 15.6001 7.84674 15.6001C8.07432 14.8997 7.82503 14.1323 7.22918 13.6995C7.22917 13.6994 7.22915 13.6994 7.22914 13.6994L3.86897 11.2581C3.32038 10.8595 3.60231 9.99182 4.28043 9.99182H8.43387C9.17034 9.99182 9.82308 9.51759 10.0507 8.81714C10.0507 8.81714 10.0507 8.81714 10.0507 8.81714L11.3341 4.867C11.5437 4.22212 12.4561 4.22204 12.6657 4.86699C12.6657 4.867 12.6657 4.86701 12.6657 4.86702L13.9491 8.81714Z" fill="#F19937" stroke="#F19937"/>
</g>
</svg>
